<?xml version="1.0" encoding="UTF-8"?>
<svg id="Layer_1" data-name="Layer 1" xmlns="http://www.w3.org/2000/svg" version="1.1" xmlns:xlink="http://www.w3.org/1999/xlink" viewBox="0 0 792 612">
  <defs>
    <style>
      .cls-1 {
        fill: url(#GradientFill_3);
      }

      .cls-1, .cls-2, .cls-3, .cls-4, .cls-5, .cls-6 {
        stroke-width: 0px;
      }

      .cls-1, .cls-2, .cls-4, .cls-5, .cls-6, .cls-7 {
        fill-rule: evenodd;
      }

      .cls-2 {
        fill: url(#GradientFill_2);
      }

      .cls-3 {
        clip-rule: evenodd;
        fill: none;
      }

      .cls-4 {
        fill: url(#GradientFill_1-2);
      }

      .cls-8 {
        clip-path: url(#clippath);
      }

      .cls-5 {
        fill: url(#GradientFill_1);
      }

      .cls-6 {
        fill: url(#GradientFill_1-3);
      }

      .cls-7 {
        fill: #fff;
        stroke: #000;
        stroke-miterlimit: 2.6;
        stroke-width: 0px;
      }
    </style>
    <linearGradient id="GradientFill_1" data-name="GradientFill 1" x1="639.8" y1="288.3" x2="146.7" y2="321.4" gradientUnits="userSpaceOnUse">
      <stop offset="0" stop-color="#000002"/>
      <stop offset="1" stop-color="#35110f"/>
    </linearGradient>
    <linearGradient id="GradientFill_2" data-name="GradientFill 2" x1="545.3" y1="315.4" x2="330.6" y2="53.4" gradientUnits="userSpaceOnUse">
      <stop offset="0" stop-color="#633c16"/>
      <stop offset="1" stop-color="#906326"/>
    </linearGradient>
    <clipPath id="clippath">
      <path class="cls-3" d="M484.4,56.3c-4.5-1.3-8.6-2.7-11.8-4.5,0,0,4,16.5,14.9,24.9,11,8.4,10.5,14.9,10.5,14.9,0,0,12.6,8.9,19.6,15.5-5.3-23-28.7-29.8-33.2-50.8h0ZM385.3,41.9c-4-2.5-6.9-4-8.5-3.9-6.6.2-5.8,41.8,2.5,49.2,7.5,6.7,38.8,17.6,48,20.6-12.6-19.4-51.2-6.6-42-65.9h0ZM293.9,44.3c-3.7-2-6.2-2.8-7.7-2.4-5.3,1.1-5,45.1,5.8,57.1,0,0,9.5,5.7,21.2,9.6,6.1,2,9.1,3.2,10.6,4.3,7.3.5,10.2-1.7,7.9-3.2-20.4-12.9-47.9-37.8-37.7-65.4h0ZM231.9,58.5c-56.5,126.2,146.5,71.4,222.7,102.8-22.3-4.6-47.9-7.9-76-8.5-92.5-1.9-121.3,29.8-121.3,29.8-18.9,4.4-40.4-28-49-62.8-8.6-34.8,10.7-67.1,14.1-68.1,3-.8,8.4,5.3,9.5,6.7Z"/>
    </clipPath>
    <linearGradient id="GradientFill_3" data-name="GradientFill 3" x1="584.4" y1="430.2" x2="208.8" y2="308.5" gradientUnits="userSpaceOnUse">
      <stop offset="0" stop-color="#ffd49c"/>
      <stop offset="1" stop-color="#ffeed9"/>
    </linearGradient>
    <linearGradient id="GradientFill_1-2" data-name="GradientFill 1" x1="501.1" y1="280.2" x2="247.4" y2="336" xlink:href="#GradientFill_1"/>
    <linearGradient id="GradientFill_1-3" data-name="GradientFill 1" x1="542.3" y1="389.3" x2="182.4" y2="442.5" xlink:href="#GradientFill_1"/>
  </defs>
  <path class="cls-5" d="M240.6,191.6c-8.4-4-15.6-11.4-21-18.7-10.6-14.4-18.3-32.9-22.6-50.2-4.3-17.5-2.9-36.1,2.8-53.2,2.8-8.5,9.8-26.2,19.4-28.9,6.6-1.9,12.5,1.4,17.1,5.7,1.6,1.5,3.3,3.2,4.7,4.9,9.6,11,20.3,21.2,32,30.1-.9-5-1.4-10-1.6-14.3-.4-6.2-.4-12.7.3-18.9.9-7.5,3.4-15.9,12-17.7,8.7-1.8,19,5.3,26,9.8,13.8,8.9,27.4,18.3,41.2,27.3,3.7,2.4,7.5,4.8,11.3,7-.9-5.1-1.2-10.2-1.4-14.3-.4-11.2-.2-33.5,15.7-34,5.6-.1,11.2,3.3,15.8,6.2,5.5,3.5,10.9,7.2,16.4,10.8,12.3,8,26.4,16.7,40.5,21.2,6.5,2.1,12.9,4.5,19.2,7.2-3.3-5.5-5.8-11.6-7.1-17.3-1.1-4.6.5-9.2,4.3-12,3.8-2.9,8.6-3.2,12.8-.8,3.1,1.8,7.4,3,10.9,3.9,5.8,1.5,11.7,2.8,17.5,4.3,15.7,4.1,30,9.6,43,19.7,17.4,13.6,33.7,37.6,41.7,58.4,0,.2.2.4.2.7,4.1,13,8.5,24,15.6,35.6,3.4,5.6,7.1,11.1,10.5,16.6,5.3,8.5,10.4,17.1,15.2,25.8,11.5,20.7,18.3,44.6,21.9,68,1.7,10.9,3,23.2,3,34.2,0,3.8-1.8,7.2-4.7,9.3,10.4,44.5-.3,92.4-20.6,139.2-16.7,38.4-46.5,68.6-82.3,89.7-41,24.2-88.7,36-136.1,38.2-47.1,2.2-94.9-4.8-138.9-21.7-33.5-12.9-68-33-92.4-59.7-49.6-54.6-61.8-120.3-34.4-189.2,14-35.1,34.8-67.5,60.9-94.8,9.4-9.9,19.9-19.5,31.2-28.2Z"/>
  <path class="cls-2" d="M646.1,308.8s.2-53.8-23.4-96.5c-23.6-42.7-30.3-42.6-42.3-80.2,0,0-13.1-34-38-53.4-24.9-19.4-55.1-18.6-69.9-27,0,0,4,16.5,14.9,24.9,11,8.4,10.5,14.9,10.5,14.9,0,0,22.5,15.8,24,21,1.5,5.2-5.2,6.7-11.7-1.4-6.5-8.1-34.3-25.7-64.8-35.5-30.4-9.8-62.1-37.8-68.8-37.7s-5.8,41.8,2.5,49.2c8.2,7.4,45,19.7,50,21.3,0,0,2,.9.9,4-1.1,3.2-5.3,2.8-5.3,2.8,0,0-43.3-13.7-80.4-38-37.1-24.4-53.1-36.6-58.4-35.4-5.3,1.1-5,45.1,5.8,57.1,0,0,9.5,5.7,21.2,9.6,11.8,3.8,12.3,4.9,11.5,7.8-.8,2.9-3.3,2.8-7.2,1.9-3.8-.9-46-14.1-85.4-59.5,0,0-6.4-7.9-9.7-7-3.3.9-22.7,33.3-14.1,68.1,8.6,34.8,30.1,67.2,49,62.8,0,0,28.8-31.8,121.3-29.8,92.5,1.9,157.8,33.2,168.2,42.5,10.4,9.2,16.7,55.7,19.2,87.4,2.5,31.8-11.1,51.3-9.2,68.2,1.9,17,12.1,28.5,25.6,23.6,13.5-4.9,16.1-32.6,16.7-46.4.6-13.8-4.5-91-3.8-94.8.7-3.7,36.6,33.4,50.9,75.3h0ZM273.5,107.5s14.3,11.5,35.5,16.5c0,0,4.2,1.2,4,3.1-.2,1.9-8.7,1.9-20.8-3.3-12.2-5.2-23.1-13.1-23.5-14.8-.4-1.7,1.6-3.6,4.9-1.4h0ZM544.4,176.5s11,6.9,15.3,13.2c4.3,6.3,3.7,10.5,2.7,11-1,.5-6.9-11.2-13.3-15.3s-8.2-8.8-4.7-8.9h0ZM500,109.3c3.1,3.9-1.8,3.5-4,2.6-2.2-1-17.9-10.5-22.4-11.5-4.5-1-7.9-2.3-8-3.6,0-1.4,1-3.6,10.9-.2,9.9,3.4,23.4,12.8,23.4,12.8h0ZM361.4,96.3s16.3,12.4,42.2,18.4c0,0,5.9.7,6.3,3,.4,2.3-2.3,4.3-15.5-.1-13.2-4.4-35.4-13.9-38-20.6,0,0-.4-1.8,1-2.6,1.4-.8,3.3,1.1,4,1.9Z"/>
  <g class="cls-8">
    <image width="1299" height="606" transform="translate(206.1 38) scale(.2)" xlink:href="source+vector file-1.png"/>
  </g>
  <path class="cls-1" d="M542.8,202.4s-33.4-31.3-145.3-40.7c0,0-75.3-2.2-114.2,16.7-38.9,18.9-94.3,66.3-123.9,140.6-29.6,74.3-6.9,134.1,32.2,177,39,42.9,121.5,82.4,222.1,77.7,100.6-4.7,178.5-52.5,208.2-120.9,29.7-68.4,39.4-140.3-17.9-198.8,0,0,6.3,36.7,2,88.5,0,0-1.2,38.8-27.9,42,0,0-21,.9-27.8-25.8-6.8-26.6,7.7-41.6,7.4-73.3s-14.9-82.9-14.9-82.9Z"/>
  <path class="cls-4" d="M395.1,347.3s17.3-11.4,44.3-9.1c27,2.4,41,14.3,41,14.3,0,0,5,.8,6.6-2.9,1.5-3.7-1.2-8.1-12.4-13.3-11.3-5.2-38.5-11.3-55.9-8.4-17.5,2.9-27.7,8.4-29.2,12.1-1.5,3.7,1.7,9.2,5.7,7.2h0ZM228.4,276.1c9-6.1,77.5-24.5,78.3-16.2.5,5.8-6.1,6.7-17.6,9-11.5,2.2-45.4,10.3-54.3,15.2-8.8,4.9-10.6-4.2-6.5-7.9h0ZM517,311.6c-5.6-8.7-50.7-47.4-54.1-40.9-2.4,4.6,2.9,8,12,14.4,9,6.4,28.1,22.9,34,30.4,5.9,7.6,10.4.7,8.2-4h0ZM314.9,340s-9.9-16.1-32.2-22c-22.3-5.8-37.6,1.5-37.6,1.5,0,0-4.3-.7-4.2-4.7,0-4,3.7-7.4,14.5-9,10.8-1.6,34.5.7,47.4,8.7,12.9,8,19.2,16.3,19.1,20.3,0,4-4.5,8.4-7,5.2Z"/>
  <path class="cls-6" d="M254.9,354.5s54.5,56.7,147,58.7c0,0,25.5,4.4,78.6-15.7,53.1-20,82.5,8,79.8,35.8-13,135.7-361,102.2-396.7-34.2-12.8-49.1,25.6-109.7,91.2-44.6Z"/>
  <path class="cls-7" d="M247.4,362c-13.7-13.6-41.2-35.6-60.8-19.7-14.7,11.9-17.1,37-12.6,54.2,9,34.4,39.8,59.2,69.9,75.3,38.3,20.5,84.4,32,127.6,36,39.4,3.6,85.4,1.5,122.5-13.2,28.2-11.1,52.7-30.3,55.8-62.2,1-10.7-4.5-20.3-13.8-25.7-14.6-8.5-34.1-5.4-49.4,0-1.1,15.3,2.6,36.7,3.5,47.9,1,12.7-8.8,8.3-10.8-9.4-1.7-14.3-1.7-29.7-1.7-35.2-17.7,6.3-36.5,11.5-55,13.5-6.4.7-15,1.3-21.6.3-8.2-.2-16.3-.8-24.3-1.8-8.1,15.1-11,47-11.9,55.9-.9,9.8-9.1,6.4-7.5-13.3,1.3-15.5,6.5-36.2,8.7-44.3-27.1-4.7-53.3-14.1-77.4-27.9-4-2.3-8.2-4.9-12.5-7.7-21,13.3-27.3,67.5-27.3,67.5,0,0,1.1,6.6-3.9,6.8-5,.3-7.4-6,1.1-37.6,6.4-24.1,16.8-37.7,21.4-42.8-7.3-5.3-14.3-11-19.9-16.8Z"/>
</svg>