<?xml version="1.0" encoding="UTF-8"?>
<svg version="1.1" xmlns="http://www.w3.org/2000/svg" width="4721" height="1023">
<path d="M0 0 C1.76079391 0.00323273 1.76079391 0.00323273 3.55715942 0.00653076 C20.55089735 0.0566286 37.2215845 0.36933586 54 3.3125 C55.75981201 3.61051514 55.75981201 3.61051514 57.55517578 3.91455078 C110.98991082 13.17527664 161.29690848 34.1865161 205 66.3125 C205.62874023 66.77398437 206.25748047 67.23546875 206.90527344 67.7109375 C226.14453025 81.93828708 244.27200974 98.27514487 260 116.3125 C261.29744141 117.77816406 261.29744141 117.77816406 262.62109375 119.2734375 C312.21868318 176.01329706 344.86899881 253.97728211 345.203125 329.84765625 C345.21013931 330.91637466 345.21715363 331.98509308 345.22438049 333.0861969 C345.2417908 336.51584126 345.24823265 339.94531307 345.25 343.375 C345.25101212 345.13067291 345.25101212 345.13067291 345.25204468 346.92181396 C345.23674398 363.59442966 344.90923955 379.85613813 342 396.3125 C341.82839355 397.34729492 341.65678711 398.38208984 341.47998047 399.44824219 C336.00833584 432.12163752 326.28993646 463.4274997 312 493.3125 C311.61763184 494.12493164 311.23526367 494.93736328 310.84130859 495.77441406 C297.68825121 523.61313643 280.1905723 550.18097487 259.265625 572.8359375 C257.4079748 574.86654134 255.60758511 576.92652674 253.8125 579.01171875 C243.57275007 590.74009079 232.33121058 601.80495793 220 611.3125 C218.91106018 612.20991094 217.82533189 613.11122765 216.7421875 614.015625 C206.37477488 622.60739554 195.29239881 629.99634392 184 637.3125 C183.34 636.9825 182.68 636.6525 182 636.3125 C181.41252708 633.76649761 181.41252708 633.76649761 180.92929077 630.33366394 C180.74234964 629.05754148 180.55540852 627.78141901 180.36280251 626.46662617 C180.26561967 625.77946825 180.16843684 625.09231033 180.06830907 624.38432944 C179.54586135 620.71103622 178.98822511 617.04318808 178.4274292 613.37557983 C178.31166129 612.61804415 178.19589339 611.86050846 178.07661736 611.08001715 C176.28689275 599.53245797 173.93895498 588.08791796 171.62569046 576.63610268 C170.76058435 572.35333245 169.90687299 568.06833159 169.05453491 563.78300476 C166.94405497 553.18021844 164.82101205 542.57995526 162.69250488 531.98077393 C161.02025743 523.65322263 159.35214769 515.32489396 157.69741666 506.99384183 C156.85139896 502.73683099 155.99662462 498.48170604 155.13502049 494.22782385 C154.48034663 490.98322387 153.83808051 487.73619073 153.19384766 484.48950195 C152.9549884 483.32345428 152.71612915 482.15740662 152.47003174 480.95602417 C152.15478043 479.34907936 152.15478043 479.34907936 151.8331604 477.70967102 C151.64699976 476.78242879 151.46083912 475.85518656 151.26903725 474.89984608 C150.82080732 470.58919405 151.48194919 468.05051683 153.96875 464.5078125 C154.8040625 463.49460937 155.639375 462.48140625 156.5 461.4375 C182.49478253 428.73573777 195.21672813 386.4600407 195.25 345.0625 C195.25067474 344.30750214 195.25134949 343.55250427 195.25204468 342.77462769 C195.23454043 330.41254115 194.59677822 318.43761405 192 306.3125 C191.75056641 305.14654297 191.75056641 305.14654297 191.49609375 303.95703125 C185.78766965 278.37483434 175.53314642 253.51599889 160 232.3125 C159.24332031 231.27222656 158.48664063 230.23195312 157.70703125 229.16015625 C151.67782592 221.02982745 144.98465064 213.62689809 138 206.3125 C137.39800781 205.65765625 136.79601562 205.0028125 136.17578125 204.328125 C104.78788448 171.12178585 54.87559366 151.37495862 9.75390625 149.92578125 C-45.38753232 148.58671428 -95.25474442 167.67475417 -135.37109375 205.46484375 C-143.03011627 212.8278654 -149.75193065 220.72731242 -156 229.3125 C-156.41314453 229.87598145 -156.82628906 230.43946289 -157.25195312 231.02001953 C-176.83619359 258.0763771 -189.131529 290.16060314 -193 323.3125 C-193.11085938 324.23160156 -193.22171875 325.15070313 -193.3359375 326.09765625 C-195.90160884 351.30364365 -192.0322534 375.65930129 -187.08203125 400.31640625 C-186.58633283 402.82124279 -186.09145451 405.32624174 -185.59733582 407.83139038 C-184.4182313 413.79848247 -183.23064829 419.76382927 -182.0389573 425.72841859 C-180.66855793 432.59002842 -179.3093739 439.45384575 -177.9506743 446.31778014 C-173.02543842 471.19510819 -168.05490195 496.06340696 -163.07421875 520.9296875 C-162.80285567 522.28486009 -162.80285567 522.28486009 -162.52601051 523.6674099 C-160.88070735 531.88332295 -159.23414542 540.09895623 -157.57307911 548.31169891 C-156.99290646 551.18173505 -156.41475932 554.05217702 -155.83693886 556.92268753 C-155.45145222 558.83319526 -155.06284355 560.74307223 -154.67411804 562.65292358 C-154.45037003 563.76511261 -154.22662201 564.87730164 -153.99609375 566.02319336 C-153.70496704 567.45978554 -153.70496704 567.45978554 -153.40795898 568.92539978 C-153 571.3125 -153 571.3125 -153 574.3125 C-151.9805127 574.10044922 -150.96102539 573.88839844 -149.91064453 573.66992188 C-146.13534063 572.88521173 -142.35950267 572.10309863 -138.58349609 571.32177734 C-136.94793194 570.98297031 -135.31251434 570.64345501 -133.67724609 570.30322266 C-131.32948173 569.81487628 -128.98120561 569.32906256 -126.6328125 568.84375 C-125.89942657 568.69063354 -125.16604065 568.53751709 -124.41043091 568.37976074 C-119.22774341 567.3125 -119.22774341 567.3125 -117 567.3125 C-112.4028724 587.93356659 -108.04683188 608.58992035 -103.97265625 629.32055664 C-103.2561212 632.96530462 -102.53120897 636.60833586 -101.80441475 640.25105 C-101.23255153 643.12354924 -100.66589214 645.99705721 -100.10067368 648.87087059 C-99.7090757 650.85601102 -99.31252853 652.84017318 -98.915802 654.82429504 C-96.09619671 669.26943904 -95.19897649 683.29016524 -96.8125 697.9375 C-96.88251221 698.60539551 -96.95252441 699.27329102 -97.0246582 699.96142578 C-97.5295683 704.11648856 -98.42365957 708.04943819 -99.5456543 712.08349609 C-99.95342354 713.55621475 -99.95342354 713.55621475 -100.36943054 715.0586853 C-100.57751846 715.80244415 -100.78560638 716.546203 -101 717.3125 C-122.57370412 721.61981233 -144.14827439 725.92276134 -165.7238884 730.22049713 C-175.74147139 732.21604703 -185.75876442 734.2130315 -195.77539062 736.21337891 C-204.50441668 737.9565853 -213.23397144 739.69711476 -221.96417546 741.43441248 C-226.58803163 742.35465073 -231.21160928 743.27624033 -235.83455658 744.20103455 C-240.18402787 745.07107752 -244.534196 745.93754487 -248.88492966 746.80125237 C-250.48317427 747.11919481 -252.08115784 747.4384527 -253.67885971 747.7591114 C-255.85754811 748.19617115 -258.0371199 748.6285206 -260.21697998 749.05969238 C-262.04766085 749.4247224 -262.04766085 749.4247224 -263.91532516 749.79712677 C-267 750.3125 -267 750.3125 -271 750.3125 C-302.94202328 589.88773219 -302.94202328 589.88773219 -317.375 516.4375 C-317.61136169 515.23466621 -317.84772339 514.03183243 -318.09124756 512.79254913 C-318.78489508 509.26227343 -319.47841725 505.73197314 -320.171875 502.20166016 C-320.39540775 501.06378115 -320.61894051 499.92590214 -320.84924698 498.75354195 C-321.93998998 493.19986125 -323.02941345 487.64592734 -324.1161499 482.09146118 C-326.12836801 471.81148198 -328.15140233 461.53395304 -330.20855522 451.26285744 C-331.20739965 446.27256011 -332.20062983 441.28115181 -333.19353104 436.28966904 C-333.66165304 433.94430056 -334.13238923 431.5994518 -334.6061821 429.25522232 C-337.14225115 416.7038241 -339.4268969 404.15281862 -341.25537109 391.47705078 C-341.41825937 390.35234312 -341.58114765 389.22763546 -341.74897194 388.06884575 C-343.24763206 377.28789787 -344.14213492 366.50673974 -344.203125 355.62109375 C-344.21013931 354.76089127 -344.21715363 353.90068878 -344.22438049 353.01441956 C-344.24172694 350.25955853 -344.24823188 347.50491362 -344.25 344.75 C-344.25067474 343.8005249 -344.25134949 342.8510498 -344.25204468 341.87280273 C-344.23402694 325.83802212 -343.45554845 310.18414044 -341 294.3125 C-340.83371094 293.21695801 -340.66742188 292.12141602 -340.49609375 290.99267578 C-331.53949839 233.86120778 -307.89623656 178.71782662 -272 133.3125 C-271.4755127 132.64524902 -270.95102539 131.97799805 -270.41064453 131.29052734 C-255.22395726 112.04371641 -238.40793741 93.37415283 -219 78.3125 C-217.88551482 77.40018823 -216.77370019 76.48460786 -215.6640625 75.56640625 C-170.48092733 38.37334543 -116.03877336 15.04024875 -58.6875 4.5625 C-57.60412354 4.36366211 -56.52074707 4.16482422 -55.40454102 3.95996094 C-36.92542369 0.74043896 -18.73601745 -0.06182686 0 0 Z " fill="#FFFFFF" transform="translate(588,-0.3125)"/>
<path d="M0 0 C1.47235885 7.40863148 2.94470464 14.81726556 4.41703844 22.22590202 C5.16975713 26.01350641 5.92247887 29.8011102 6.67520714 33.58871269 C10.23785714 51.51539133 13.80027484 69.44211607 17.36203051 87.36897242 C18.79514026 94.58200797 20.22829369 101.79503484 21.66145706 109.00805974 C22.02624333 110.84401003 22.39102755 112.67996073 22.75580978 114.51591182 C27.39963213 137.88822912 32.0455967 161.26011831 36.69563931 184.63119888 C36.86218811 185.46827251 37.02873691 186.30534615 37.20033264 187.16778564 C37.36615556 188.00120861 37.53197847 188.83463158 37.70282632 189.69330978 C39.82540344 200.36166434 41.94681984 211.03024974 44.06811047 221.69886017 C45.60914043 229.44889718 47.15078076 237.19881179 48.69393921 244.94842529 C52.47986289 263.96222785 56.25466161 282.97815325 60 302 C60.23139175 303.17451469 60.46278351 304.34902939 60.70118713 305.55913544 C61.99603698 312.13728098 63.28302297 318.71687789 64.55789566 325.2989254 C64.9299621 327.21634356 65.3039288 329.13339437 65.68017197 331.04999733 C73.70720803 371.99340921 76.61851415 414.61030646 70 456 C69.70996094 457.81951172 69.70996094 457.81951172 69.4140625 459.67578125 C58.64474696 524.75701529 30.14803739 584.19331486 -13 634 C-13.680625 634.7940625 -14.36125 635.588125 -15.0625 636.40625 C-25.26110173 648.0390301 -36.24449441 659.4852873 -48.453125 669.01171875 C-51.25259496 671.19719453 -53.92988372 673.49979886 -56.625 675.8125 C-85.00717557 699.42180651 -118.43949598 717.36460032 -153 730 C-153.88284668 730.32548828 -154.76569336 730.65097656 -155.67529297 730.98632812 C-187.62833928 742.61444526 -222.65905085 750.06120253 -256.75390625 750.203125 C-257.8530687 750.20882507 -258.95223114 750.21452515 -260.08470154 750.22039795 C-262.40500953 750.2297917 -264.72533053 750.23635936 -267.0456543 750.24023438 C-270.50139472 750.24983032 -273.95651076 750.28086302 -277.41210938 750.3125 C-347.21443094 750.64476893 -416.62122705 726.87175721 -473 686 C-473.68320312 685.50612793 -474.36640625 685.01225586 -475.0703125 684.50341797 C-483.46110181 678.40577564 -491.40318441 672.07573438 -499 665 C-500.37075183 663.80759878 -501.74557863 662.61986117 -503.125 661.4375 C-507.28221545 657.81778311 -511.13903664 653.93032199 -515 650 C-517.50891749 647.47888356 -520.02854967 644.97222895 -522.578125 642.4921875 C-528.35023546 636.83821965 -533.69030755 631.05269732 -538.67919922 624.68017578 C-540.20151171 622.74365923 -541.74386595 620.82378672 -543.28515625 618.90234375 C-551.18509626 608.98255126 -558.38438001 598.81692608 -565 588 C-565.43296387 587.29488281 -565.86592773 586.58976563 -566.31201172 585.86328125 C-572.04440164 576.47251045 -577.27483268 566.90907184 -582.03662109 556.99169922 C-582.99163531 555.01729324 -583.97208141 553.05727053 -584.95703125 551.09765625 C-604.36987609 511.91220296 -615.89824121 465.50154202 -616.23828125 421.7109375 C-616.2480751 420.66140396 -616.25786896 419.61187042 -616.26795959 418.53053284 C-616.87459352 336.59267291 -594.49614686 257.86551047 -543 193 C-542.28199219 192.07960938 -541.56398438 191.15921875 -540.82421875 190.2109375 C-538.91280739 187.78111022 -536.96502969 185.38664526 -535 183 C-534.20335937 182.01773438 -533.40671875 181.03546875 -532.5859375 180.0234375 C-526.2626359 172.35792565 -519.44197797 165.23283485 -512.4375 158.1875 C-511.57552002 157.31633545 -510.71354004 156.4451709 -509.82543945 155.54760742 C-503.85801911 149.60842853 -497.56753926 144.25973482 -491 139 C-489.1849197 137.44049815 -487.37183674 135.87866188 -485.5625 134.3125 C-480.04252644 129.6967229 -474.25904594 125.5141544 -468.375 121.375 C-467.03997437 120.4320105 -467.03997437 120.4320105 -465.67797852 119.4699707 C-464.84322998 118.88948975 -464.00848145 118.30900879 -463.1484375 117.7109375 C-462.39739746 117.18806152 -461.64635742 116.66518555 -460.87255859 116.12646484 C-459 115 -459 115 -457 115 C-456.88828461 115.7074234 -456.77656921 116.4148468 -456.66146851 117.14370728 C-453.18721765 138.82625703 -449.02365183 160.3666755 -444.7265625 181.8984375 C-444.51352871 182.96650682 -444.51352871 182.96650682 -444.29619122 184.0561533 C-442.08038139 195.16402425 -439.85366765 206.2697029 -437.625 217.375 C-435.66287308 227.15242288 -433.70221362 236.93012753 -431.75083482 246.70970213 C-430.91046086 250.91991833 -430.0654948 255.12917754 -429.21686864 259.3377378 C-428.57131746 262.54520722 -427.93191618 265.75390356 -427.29150391 268.96240234 C-427.05781097 270.11438614 -426.82411804 271.26636993 -426.58334351 272.45326233 C-426.26819794 274.04108269 -426.26819794 274.04108269 -425.94668579 275.66098022 C-425.76274576 276.57695166 -425.57880573 277.49292309 -425.38929176 278.43665123 C-424.38576466 285.0445228 -424.38576466 285.0445228 -426.6171875 288.515625 C-427.36226562 289.41796875 -428.10734375 290.3203125 -428.875 291.25 C-459.2824017 329.76320866 -470.6347167 381.67211642 -465.23071289 429.85888672 C-459.00870883 476.056306 -435.74401379 523.3844545 -399 553 C-398.03191406 553.80566406 -397.06382812 554.61132812 -396.06640625 555.44140625 C-368.93412531 577.68818363 -336.61948522 592.26783168 -302 598 C-301.33081543 598.11569336 -300.66163086 598.23138672 -299.97216797 598.35058594 C-251.53657776 606.41720017 -199.39157097 593.16865471 -159.44970703 565.08374023 C-153.00342315 560.40313354 -146.97582806 555.25971643 -141 550 C-140.22914063 549.35160156 -139.45828125 548.70320312 -138.6640625 548.03515625 C-133.95000054 544.05258666 -129.95569533 539.72734021 -126 535 C-125.23816406 534.12601563 -124.47632813 533.25203125 -123.69140625 532.3515625 C-93.82726277 497.59547664 -76.95564902 452.5951131 -76.75 406.8125 C-76.7190625 405.16604492 -76.7190625 405.16604492 -76.6875 403.48632812 C-76.58380039 380.47797664 -82.02279327 357.75287622 -86.56832337 335.31430006 C-87.4439046 330.98356723 -88.31059524 326.65105448 -89.1783905 322.3187561 C-90.63674713 315.04432697 -92.10061244 307.77102593 -93.56860352 300.49853516 C-95.61819508 290.34475829 -97.65809595 280.18905343 -99.69585764 270.03289676 C-102.44505103 256.33355874 -105.19733477 242.63483247 -107.96025884 228.9382565 C-108.27030525 227.40123531 -108.58019977 225.86418347 -108.88993514 224.32709956 C-110.49925514 216.34377029 -112.12565079 208.36459143 -113.79867554 200.39434814 C-113.94124281 199.71338676 -114.08381008 199.03242537 -114.23069757 198.33082879 C-114.89787223 195.14494245 -115.56901601 191.96000994 -116.24771595 188.77655602 C-116.47962981 187.67310656 -116.71154367 186.5696571 -116.95048523 185.43276978 C-117.15424113 184.47442041 -117.35799704 183.51607105 -117.56792736 182.5286808 C-118 180 -118 180 -118 176 C-118.78536133 176.17128418 -119.57072266 176.34256836 -120.37988281 176.51904297 C-124.00261095 177.30735628 -127.62629279 178.09120015 -131.25 178.875 C-132.48492187 179.14441406 -133.71984375 179.41382813 -134.9921875 179.69140625 C-136.21679688 179.95566406 -137.44140625 180.21992188 -138.703125 180.4921875 C-139.81333008 180.73308105 -140.92353516 180.97397461 -142.06738281 181.22216797 C-147.34796275 182.31263954 -152.67867535 183.13615038 -158 184 C-162.19975786 164.75856424 -166.14042447 145.47818477 -169.91644287 126.14984131 C-170.45424616 123.40032303 -170.99456811 120.6513021 -171.53492451 117.90228462 C-172.18710805 114.58350236 -172.83770848 111.26441091 -173.48828125 107.9453125 C-173.84603386 106.12206955 -173.84603386 106.12206955 -174.21101379 104.26199341 C-174.43182114 103.13155609 -174.65262848 102.00111877 -174.88012695 100.83642578 C-175.07298782 99.85054474 -175.26584869 98.8646637 -175.46455383 97.84890747 C-177.00576216 89.64871821 -177.28133357 81.69321567 -177.3125 73.375 C-177.31611542 72.6402243 -177.31973083 71.90544861 -177.32345581 71.14840698 C-177.37568296 44.75136592 -177.37568296 44.75136592 -172 34 C-169.8473444 33.32866478 -169.8473444 33.32866478 -166.95411682 32.7281189 C-165.8675048 32.49859842 -164.78089277 32.26907795 -163.66135311 32.03260231 C-162.46285512 31.78900663 -161.26435713 31.54541096 -160.02954102 31.29443359 C-158.77720201 31.03338018 -157.524863 30.77232677 -156.23457432 30.50336266 C-152.15905806 29.65563276 -148.07980391 28.82680663 -144 28 C-142.67161712 27.72985653 -141.34324154 27.4596772 -140.0148735 27.18946075 C-130.94413583 25.34717055 -121.86679398 23.53852759 -112.7877624 21.73762178 C-109.70963162 21.12679505 -106.63176287 20.51465331 -103.55388647 19.90254629 C-96.30656585 18.46128155 -89.05882345 17.02215311 -81.81079102 15.58447266 C-74.35133007 14.10481531 -66.89261246 12.62145246 -59.43423074 11.13636553 C-52.982279 9.85180536 -46.52989105 8.56945371 -40.07714278 7.28890073 C-36.24250545 6.5278934 -32.40803713 5.76605984 -28.57398796 5.00209427 C-24.99306617 4.28866727 -21.41160859 3.57799577 -17.82971191 2.86948013 C-15.8895173 2.48498989 -13.94988505 2.09766528 -12.01026917 1.71026611 C-10.86021393 1.48334076 -9.71015869 1.25641541 -8.5252533 1.02261353 C-7.52460311 0.82392481 -6.52395292 0.62523609 -5.49298 0.4205265 C-3 0 -3 0 0 0 Z " fill="#0071BC" transform="translate(637,273)"/>
<path d="M0 0 C3.51871219 0.00314473 7.03656758 -0.02034234 10.55517578 -0.0456543 C72.20233464 -0.21820066 136.22389038 16.76300451 184.55126953 56.31567383 C185.47810547 57.05172852 186.40494141 57.7877832 187.35986328 58.54614258 C193.38287102 63.37309204 199.08728323 68.47479166 204.72705078 73.73754883 C207.60132787 76.36137023 210.5444435 78.84625688 213.55126953 81.31567383 C212.13207121 85.77601141 209.6851031 88.64416561 206.48876953 91.94067383 C202.83364584 95.8114037 199.32618873 99.72427886 195.98876953 103.87817383 C192.17404341 108.61768204 188.13557522 113.0946638 184.01611328 117.56958008 C181.62419656 120.23442549 179.35872069 122.96399208 177.11376953 125.75317383 C173.45620689 130.28803544 169.60509926 134.57103565 165.63964844 138.83276367 C161.8454303 142.93465696 158.32310083 147.21927546 154.82080078 151.57348633 C151.587962 155.47960134 148.16419278 159.1884121 144.71533203 162.90551758 C142.85905976 164.97288219 141.17215533 167.0621197 139.55126953 169.31567383 C135.8487147 168.73714964 134.19486117 167.28567003 131.55126953 164.69067383 C104.13616492 139.40294923 69.44356964 119.23410761 32.55126953 112.31567383 C31.35244141 112.09008789 30.15361328 111.86450195 28.91845703 111.63208008 C-10.57997703 105.5521725 -52.24218325 113.43806217 -85.01513672 136.74145508 C-90.75050588 140.97171742 -96.15773193 145.54581332 -101.44873047 150.31567383 C-102.17447266 150.96922852 -102.90021484 151.6227832 -103.64794922 152.29614258 C-131.7145324 178.99640122 -150.6102142 221.75954114 -151.60986328 260.48657227 C-151.62939254 261.96600177 -151.64315427 263.44551601 -151.65185547 264.92504883 C-151.66244492 266.12566704 -151.66244492 266.12566704 -151.67324829 267.35054016 C-151.98003592 291.50248654 -151.98003592 291.50248654 -148.44873047 315.31567383 C-148.25537109 316.17257812 -148.06201172 317.02948242 -147.86279297 317.91235352 C-140.87070795 348.17901783 -126.82485624 375.7362562 -105.44873047 398.31567383 C-104.62888672 399.1999707 -103.80904297 400.08426758 -102.96435547 400.99536133 C-80.95525854 423.98119333 -50.76406459 437.78758138 -19.44873047 442.31567383 C-18.67400391 442.42782227 -17.89927734 442.5399707 -17.10107422 442.65551758 C25.53540505 447.58810551 67.66249354 437.13492504 102.55126953 412.31567383 C103.67820506 411.53736105 104.80584166 410.76006264 105.93408203 409.98364258 C116.51539031 402.6376632 126.24125314 394.41568873 135.77001953 385.75317383 C137.90425036 384.03081211 140.19199947 382.70847267 142.55126953 381.31567383 C152.04062365 390.758721 161.52459456 400.20713794 171.00169945 409.6624794 C175.40229819 414.05263368 179.80474108 418.44090512 184.21142578 422.82495117 C188.46273497 427.05455585 192.70916338 431.28900404 196.95222855 435.52687836 C198.57322345 437.14417322 200.19597982 438.75970453 201.82050705 440.37345123 C204.09268586 442.63114719 206.35856404 444.89498909 208.62304688 447.16040039 C209.29846024 447.8286232 209.9738736 448.49684601 210.66975403 449.18531799 C211.2867366 449.8050499 211.90371918 450.4247818 212.53939819 451.06329346 C213.07588171 451.59793339 213.61236523 452.13257332 214.16510582 452.68341446 C215.66669487 454.45159146 216.5990367 456.20802399 217.55126953 458.31567383 C213.91421624 462.00282958 210.27013521 465.68285398 206.61987305 469.35693359 C205.38362712 470.60312725 204.14919448 471.85112285 202.91674805 473.10107422 C195.45511415 480.66587833 187.94949438 487.78465235 179.55126953 494.31567383 C178.84510498 494.8810083 178.13894043 495.44634277 177.41137695 496.02880859 C142.10787939 524.26379133 101.79083392 541.96654099 57.23876953 549.62817383 C56.3826709 549.77561035 55.52657227 549.92304687 54.64453125 550.07495117 C36.45431751 552.94037173 18.18688603 553.6950726 -0.19873047 553.62817383 C-1.24633545 553.62635101 -2.29394043 553.6245282 -3.37329102 553.62265015 C-19.24897535 553.57626094 -34.7796298 553.09109333 -50.44873047 550.31567383 C-51.42455078 550.14938477 -52.40037109 549.9830957 -53.40576172 549.81176758 C-77.02692048 545.67576702 -99.74844305 538.49349764 -121.44873047 528.31567383 C-122.28597656 527.92653809 -123.12322266 527.53740234 -123.98583984 527.13647461 C-142.87042911 518.27842649 -160.09916376 507.23991476 -176.44873047 494.31567383 C-177.48642578 493.50356445 -178.52412109 492.69145508 -179.59326172 491.85473633 C-194.58357517 479.65466094 -208.89958026 465.65440107 -220.23925781 449.96948242 C-221.50259093 448.24202612 -222.80828519 446.55388866 -224.12451172 444.86645508 C-256.91360952 402.33427783 -276.4012414 345.14043808 -276.65185547 291.49926758 C-276.65886978 290.49303345 -276.66588409 289.48679932 -276.67311096 288.45007324 C-276.69053319 285.21772749 -276.69696382 281.98556482 -276.69873047 278.75317383 C-276.69940521 277.65031036 -276.70007996 276.5474469 -276.70077515 275.41116333 C-276.68528041 259.50038429 -276.34549195 244.00266368 -273.44873047 228.31567383 C-273.28244141 227.35693359 -273.11615234 226.39819336 -272.94482422 225.41040039 C-264.79216061 179.13648564 -245.1016153 135.75834383 -215.44873047 99.31567383 C-215.01689453 98.78087402 -214.58505859 98.24607422 -214.14013672 97.69506836 C-202.43338102 83.30339369 -189.30615638 69.47468471 -174.44873047 58.31567383 C-173.92875488 57.91396973 -173.4087793 57.51226562 -172.87304688 57.09838867 C-138.45416528 30.5142134 -98.51478847 12.64698514 -55.82373047 4.56567383 C-54.77660889 4.36683594 -53.7294873 4.16799805 -52.65063477 3.96313477 C-35.10827394 0.82089762 -17.80265162 -0.03309043 0 0 Z " fill="#0071BC" transform="translate(1405.44873046875,241.684326171875)"/>
<path d="M0 0 C38.61 0 77.22 0 117 0 C117.33 97.02 117.66 194.04 118 294 C122.51056318 289.48943682 126.71046283 285.2470421 130.8203125 280.46484375 C133.81343107 277.08015232 136.90820977 273.79444471 140 270.5 C145.3333503 264.82553992 145.3333503 264.82553992 150.5 259 C154.48511808 254.3642504 158.70566456 249.94634111 162.88671875 245.48828125 C165.80878016 242.36684678 168.71220025 239.24295072 171.5 236 C175.48511808 231.3642504 179.70566456 226.94634111 183.88671875 222.48828125 C186.80878016 219.36684678 189.71220025 216.24295072 192.5 213 C196.48511808 208.3642504 200.70566456 203.94634111 204.88671875 199.48828125 C207.80878016 196.36684678 210.71220025 193.24295072 213.5 190 C217.48511808 185.3642504 221.70566456 180.94634111 225.88671875 176.48828125 C228.80878016 173.36684678 231.71220025 170.24295072 234.5 167 C235.00143524 166.46121719 235.50287048 165.92243439 236.01950073 165.36732483 C237.6618456 163.40420177 238.92867362 161.53547055 240.27957153 159.37962341 C244.19529791 153.70061474 248.3013603 148.98886923 255.16103363 147.15486526 C263.96241272 145.95161738 272.83301519 146.2266532 281.68958807 146.47909093 C285.57554647 146.573709 289.46173078 146.58173645 293.34866333 146.59947205 C300.68801713 146.64585366 308.02396666 146.7685928 315.36182988 146.91971439 C323.72426853 147.08814896 332.08688134 147.17003846 340.45059752 147.24514592 C357.63569172 147.40138492 374.81748452 147.66472623 392 148 C390.18545704 151.922811 387.64875694 154.59161692 384.58203125 157.578125 C384.04656174 158.10839294 383.51109222 158.63866089 382.95939636 159.18499756 C381.24846248 160.87817056 379.53101232 162.56452208 377.8125 164.25 C375.56558359 166.46009221 373.32191095 168.67340131 371.08203125 170.890625 C370.53829865 171.42876831 369.99456604 171.96691162 369.43435669 172.5213623 C366.05950673 175.88343685 362.88322416 179.35040132 359.7956543 182.97949219 C355.30333715 188.0343415 350.35759638 192.68966202 345.54296875 197.43652344 C338.82951874 204.03623612 338.82951874 204.03623612 332.5 211 C327.53111252 216.80886608 321.98221783 222.07383215 316.54296875 227.43652344 C309.84418601 234.01979571 309.84418601 234.01979571 303.53125 240.96875 C298.37932256 246.99159851 292.60817867 252.44689427 286.97021484 258.00927734 C281.74324044 263.17248769 276.61778509 268.3454046 271.84179688 273.93554688 C267.32498713 278.99839725 262.37340242 283.67407845 257.54296875 288.43652344 C252.3256502 293.58704344 247.18108116 298.74632423 242.4375 304.34375 C241.02363605 305.97276716 239.54302144 307.49371717 238 309 C239.4710809 313.18096677 241.62471783 316.62883205 244.125 320.25 C248.71016617 327.00474927 253.12158363 333.85973834 257.5 340.75 C263.34527792 349.93313607 269.31289807 359.02181536 275.375 368.0625 C280.47107692 375.66413145 285.51368802 383.2837421 290.31274414 391.07739258 C295.74423287 399.87656601 301.46682425 408.49042137 307.13037109 417.14111328 C309.9706488 421.48423837 312.79842713 425.83544776 315.625 430.1875 C316.68749491 431.82291998 317.74999489 433.45833665 318.8125 435.09375 C319.33585937 435.89941406 319.85921875 436.70507812 320.3984375 437.53515625 C322.0358087 440.05511046 323.67403178 442.57450895 325.3125 445.09375 C330.83188418 453.58067598 336.34395323 462.07220297 341.84082031 470.57373047 C347.54471577 479.3927671 353.27359596 488.19556987 359 497 C373.31524888 519.00990494 373.31524888 519.00990494 378.81445312 527.53857422 C381.36774347 531.49467892 383.94337327 535.43484033 386.5390625 539.36328125 C387.13525391 540.26949219 387.73144531 541.17570313 388.34570312 542.109375 C389.50905278 543.87674704 390.67684497 545.64120491 391.84960938 547.40234375 C392.37619141 548.20414063 392.90277344 549.0059375 393.4453125 549.83203125 C393.91469238 550.54077393 394.38407227 551.2495166 394.86767578 551.97973633 C396.00343745 554.006133 396.48476418 555.75082072 397 558 C379.73669492 558.44493524 362.47519111 558.77939787 345.20745468 558.98443127 C337.18843089 559.0821897 329.17297927 559.21529343 321.15625 559.43334961 C314.16396794 559.6234491 307.1742722 559.74546257 300.17947793 559.7876814 C296.47806319 559.81235059 292.78404207 559.86972969 289.08501434 560.00887108 C266.64335373 560.82089078 266.64335373 560.82089078 260.60840607 556.14829254 C256.66712496 551.69171061 254.18087353 546.75679311 251.96578789 541.27211285 C250.61224114 538.08775839 248.83428282 535.41264172 246.890625 532.5546875 C246.28976074 531.61665283 245.68889648 530.67861816 245.06982422 529.7121582 C244.46928223 528.775896 243.86874023 527.83963379 243.25 526.875 C241.88280678 524.74088908 240.51561945 522.60677439 239.1484375 520.47265625 C238.46362305 519.40418457 237.77880859 518.33571289 237.07324219 517.23486328 C228.12307851 503.26999414 219.18351002 489.29859416 210.28417969 475.30126953 C204.56572365 466.31028092 198.82154671 457.33583296 193.07421875 448.36328125 C190.36507017 444.13368551 187.65950944 439.90182945 184.95703125 435.66796875 C183.61728277 433.57025165 182.27743964 431.472595 180.9375 429.375 C180.28668457 428.3555127 179.63586914 427.33602539 178.96533203 426.28564453 C175.56185078 420.96480415 172.13161856 415.66349696 168.66015625 410.38671875 C167.96220947 409.32469238 167.2642627 408.26266602 166.54516602 407.16845703 C165.20735523 405.13674772 163.86555173 403.10766044 162.51928711 401.08154297 C161.92510986 400.17936035 161.33093262 399.27717773 160.71875 398.34765625 C160.19216797 397.55367432 159.66558594 396.75969238 159.12304688 395.94165039 C158 394 158 394 158 392 C154.90238445 394.25281131 152.34721222 396.66137386 149.875 399.5625 C146.90667847 403.04282458 143.757015 406.29214123 140.5 409.5 C136.79743708 413.15204791 133.25652404 416.86765847 129.93661308 420.87347603 C128 423 128 423 125.51994514 425.12870598 C120.73745621 429.31956477 117.43349593 432.44609171 116.75949097 438.94802856 C116.71331617 441.16816454 116.72082005 443.38985913 116.77294922 445.60986328 C116.75612846 447.44084816 116.75612846 447.44084816 116.7389679 449.30882263 C116.71811844 452.62641629 116.74101009 455.93808103 116.78413153 459.25507593 C116.81873671 462.73182162 116.7963779 466.20821391 116.78030396 469.68502808 C116.75846168 476.25483206 116.78715201 482.82338411 116.834427 489.39301479 C116.89084512 497.6136173 116.87905084 505.83394855 116.8671875 514.0546875 C116.84634583 528.70389114 116.92791757 543.35030516 117 558 C78.39 558 39.78 558 0 558 C0 373.86 0 189.72 0 0 Z " fill="#FFFFFF" transform="translate(4324,228)"/>
<path d="M0 0 C0.91386475 0.48919922 0.91386475 0.48919922 1.84619141 0.98828125 C32.32044561 17.31929338 55.72179246 42.37045518 73 72 C73.52303711 72.88341064 73.52303711 72.88341064 74.05664062 73.78466797 C89.15588951 99.54433301 97.09693446 129.58067141 101 159 C101.13020035 159.97199341 101.13020035 159.97199341 101.26303101 160.96362305 C102.87899047 173.38172216 103.28587328 185.65029864 103.20581055 198.16503906 C103.18730213 201.15698626 103.18530354 204.14862587 103.18554688 207.140625 C103.180638 209.07552348 103.17481245 211.0104199 103.16796875 212.9453125 C103.16685593 213.82357697 103.1657431 214.70184143 103.16459656 215.60671997 C103.15821671 216.44564789 103.15183685 217.28457581 103.14526367 218.14892578 C103.14145187 218.87105255 103.13764008 219.59317932 103.13371277 220.33718872 C102.93782384 224.23820169 102.43133761 228.11796155 102 232 C-38.58 232.495 -38.58 232.495 -182 233 C-176.80064776 250.33117413 -171.78276896 265.46062558 -160 279 C-158.84177734 280.45212891 -158.84177734 280.45212891 -157.66015625 281.93359375 C-145.61530032 296.35898977 -126.77334438 303.7563644 -109 308 C-107.99453125 308.24621094 -106.9890625 308.49242187 -105.953125 308.74609375 C-73.16986437 315.16984077 -38.61336792 307.12938084 -10.875 289.1875 C-1.87178013 282.96396276 6.61755787 276.0275761 15 269 C18.92355037 270.61612908 21.71394665 273.3133181 24.75 276.1875 C25.82488262 277.18948716 26.90040352 278.19079005 27.9765625 279.19140625 C28.49637695 279.67625488 29.01619141 280.16110352 29.55175781 280.66064453 C31.99279331 282.91814971 34.50638586 285.08929291 37.01953125 287.265625 C39.31133155 289.27264538 41.55996752 291.32402851 43.8125 293.375 C47.18940982 296.42858867 50.63217132 299.34429205 54.1875 302.1875 C60.23962165 307.07905855 65.85637112 312.39823492 71.515625 317.734375 C75.25680367 321.25762093 79.08398759 324.67201501 83 328 C79.93454361 332.91075568 76.40918066 337.04806132 72.4375 341.25 C71.81327148 341.91112793 71.18904297 342.57225586 70.54589844 343.25341797 C34.28731027 381.32029889 -16.39901761 403.40985085 -68.89428711 405.20483398 C-73.97147229 405.32537702 -79.0466641 405.33465079 -84.125 405.3125 C-85.02041504 405.31034485 -85.91583008 405.3081897 -86.83837891 405.30596924 C-141.11437905 405.09708536 -195.32631159 388.22785428 -235 350 C-235.88123535 349.1654126 -235.88123535 349.1654126 -236.78027344 348.31396484 C-268.03312949 318.60897299 -288.45606928 279.47659668 -296 237 C-296.14808105 236.23187988 -296.29616211 235.46375977 -296.44873047 234.67236328 C-301.54004851 207.5278011 -301.53955872 176.0658297 -296 149 C-295.79600586 147.99807617 -295.59201172 146.99615234 -295.38183594 145.96386719 C-287.26178691 107.34931091 -270.97234563 71.4167033 -244.078125 42.265625 C-242.18181669 40.1982212 -240.36970394 38.08249907 -238.5625 35.9375 C-224.73520823 20.23743733 -206.50851163 8.42092409 -188 -1 C-187.31260742 -1.35787598 -186.62521484 -1.71575195 -185.91699219 -2.08447266 C-130.50264736 -30.74205785 -54.62734061 -29.99943009 0 0 Z M-157.40380859 97.51269531 C-170.95131859 113.0995618 -184 136.94209419 -184 158 C-126.91 158 -69.82 158 -11 158 C-13.84216237 132.42053867 -24.67276851 105.78251365 -45 89 C-78.79464122 64.10516114 -128.20509437 66.04917647 -157.40380859 97.51269531 Z " fill="#0071BC" transform="translate(3199,390)"/>
<path d="M0 0 C32.76207794 30.89480925 42.22858292 74.45613438 43.52734375 117.87890625 C43.68990247 126.84261012 43.65451625 135.80791752 43.64086914 144.77270508 C43.64058639 147.40631207 43.64070294 150.03991629 43.64131165 152.67352295 C43.64183103 158.29786983 43.63874623 163.92220493 43.63307381 169.54654884 C43.6248783 177.67798053 43.62233543 185.80940663 43.62108582 193.940842 C43.61890781 207.13984514 43.61228198 220.33884204 43.6027832 233.5378418 C43.59357649 246.34448211 43.58652317 259.15112071 43.58227539 271.95776367 C43.58200739 272.75780903 43.5817394 273.5578544 43.58146328 274.38214356 C43.57938334 280.64085051 43.57742659 286.89955751 43.57550871 293.15826452 C43.56610852 323.7318175 43.54598237 354.3053548 43.52734375 384.87890625 C4.58734375 384.87890625 -34.35265625 384.87890625 -74.47265625 384.87890625 C-74.4984375 367.425 -74.52421875 349.97109375 -74.55078125 331.98828125 C-74.57595516 320.91405136 -74.60213022 309.83983873 -74.6328125 298.765625 C-74.64890191 292.94449949 -74.66474501 287.12337339 -74.68017578 281.30224609 C-74.68211972 280.572782 -74.68406366 279.8433179 -74.68606651 279.09174883 C-74.71698698 267.3543828 -74.73403363 255.61703626 -74.74585047 243.87963721 C-74.75831363 231.81095304 -74.78593043 219.74237025 -74.82726932 207.67375016 C-74.85003011 200.90464012 -74.86606786 194.13566051 -74.8645401 187.36650848 C-74.86378921 180.98067673 -74.88191147 174.59516293 -74.91382408 168.20941353 C-74.92226523 165.87962103 -74.92411293 163.54979262 -74.91845894 161.21999168 C-74.87110701 138.68724998 -77.05897746 116.81586454 -90.47265625 97.87890625 C-91.19324219 97.16734375 -91.91382812 96.45578125 -92.65625 95.72265625 C-94.47265625 93.87890625 -94.47265625 93.87890625 -94.47265625 91.87890625 C-95.05917969 91.60691406 -95.64570313 91.33492188 -96.25 91.0546875 C-98.42953958 89.90171489 -100.13175334 88.62448336 -102.03515625 87.06640625 C-112.82210646 78.89145323 -126.12870952 75.59058341 -139.47265625 74.87890625 C-140.16359375 74.83765625 -140.85453125 74.79640625 -141.56640625 74.75390625 C-161.04517401 74.1724505 -179.88152816 79.98260078 -194.18994141 93.37304688 C-210.82596487 109.84003831 -214.61403836 133.30969132 -214.77280974 155.72881734 C-214.78542352 159.03968473 -214.78854941 162.35048791 -214.79150391 165.66137695 C-214.80081413 168.0573561 -214.81098441 170.45333203 -214.82194519 172.8493042 C-214.84632115 178.65149301 -214.861806 184.45365519 -214.87326027 190.25588278 C-214.88709007 197.01422828 -214.9120506 203.77251933 -214.93764357 210.53082886 C-214.98298348 222.58067443 -215.01965084 234.63052987 -215.05078125 246.68041992 C-215.08101947 258.37770316 -215.11541609 270.07496222 -215.15527344 281.7722168 C-215.15775495 282.50198607 -215.16023645 283.23175533 -215.16279316 283.98363882 C-215.18441847 290.33273617 -215.20635634 296.68183244 -215.22832489 303.03092861 C-215.32232136 330.31356048 -215.39580928 357.5962082 -215.47265625 384.87890625 C-254.08265625 384.87890625 -292.69265625 384.87890625 -332.47265625 384.87890625 C-332.47265625 249.57890625 -332.47265625 114.27890625 -332.47265625 -25.12109375 C-293.86265625 -25.12109375 -255.25265625 -25.12109375 -215.47265625 -25.12109375 C-215.14265625 -6.97109375 -214.81265625 11.17890625 -214.47265625 29.87890625 C-211.50265625 26.24890625 -208.53265625 22.61890625 -205.47265625 18.87890625 C-197.74846682 10.10218991 -189.90016931 1.85927762 -180.47265625 -5.12109375 C-179.49167969 -5.85585938 -178.51070312 -6.590625 -177.5 -7.34765625 C-126.40656836 -44.19570732 -47.4055903 -43.24468008 0 0 Z " fill="#FFFFFF" transform="translate(4181.47265625,401.12109375)"/>
<path d="M0 0 C1.65212048 1.51400109 3.29773904 3.03512141 4.9375 4.5625 C5.88882813 5.43648438 6.84015625 6.31046875 7.8203125 7.2109375 C8.74585937 8.09007812 9.67140625 8.96921875 10.625 9.875 C11.47449219 10.67550781 12.32398437 11.47601563 13.19921875 12.30078125 C14.9375 14.5625 14.9375 14.5625 14.96484375 16.58984375 C13.61886713 19.17432357 11.93331991 20.81389683 9.8125 22.8125 C6.84296082 25.67866914 3.99657462 28.55201283 1.3125 31.6875 C-1.39632272 34.84571267 -4.25137632 37.77609628 -7.2199707 40.6887207 C-8.99399383 42.49283194 -10.65198094 44.35097647 -12.30078125 46.26953125 C-16.00966155 50.53498856 -19.85985511 54.65016948 -23.75 58.75 C-30.57466958 65.9722691 -37.34440046 73.24111467 -44.0625 80.5625 C-44.58312012 81.1296875 -45.10374023 81.696875 -45.64013672 82.28125 C-48.7832144 85.70623948 -51.92384487 89.13345749 -55.0625 92.5625 C-59.67029397 91.70943294 -61.90443741 88.9292261 -65 85.625 C-87.69415708 62.28846501 -115.52507954 48.91526645 -148.3125 48.375 C-173.19734801 48.62459727 -194.66180216 56.85660328 -213.0625 73.5625 C-213.743125 74.1503125 -214.42375 74.738125 -215.125 75.34375 C-234.95189315 93.57170015 -245.6622285 122.52803379 -247.26757812 148.93603516 C-247.36476885 152.37688442 -247.39155344 155.80784443 -247.375 159.25 C-247.37008545 160.47170898 -247.3651709 161.69341797 -247.36010742 162.95214844 C-247.02773696 188.78500316 -239.78421978 215.37563297 -223.0625 235.5625 C-222.01449219 236.83673828 -222.01449219 236.83673828 -220.9453125 238.13671875 C-204.96905093 256.69988388 -181.65498705 269.46539096 -157.0625 271.5625 C-116.98867596 273.76767604 -88.14761757 259.90783951 -58.0625 234.5625 C-56.83367131 233.54125985 -55.60457247 232.52034452 -54.375 231.5 C-53.611875 230.860625 -52.84875 230.22125 -52.0625 229.5625 C-47.7524928 231.22921284 -44.83373087 234.48105783 -41.62573242 237.67700195 C-40.98955994 238.30324463 -40.35338745 238.9294873 -39.69793701 239.57470703 C-37.59899997 241.64447306 -35.50789429 243.72191851 -33.41796875 245.80078125 C-31.96397957 247.24326631 -30.50998474 248.68574569 -29.0559845 250.1282196 C-26.01170498 253.15150304 -22.97209865 256.17940683 -19.93481445 259.2097168 C-16.03620362 263.09733014 -12.11937686 266.966033 -8.19796276 270.83062458 C-5.18973055 273.80167995 -2.19492993 276.78599779 0.79630089 279.77416039 C2.23510996 281.20690354 3.67893451 282.63462779 5.12775612 284.05724525 C7.14877308 286.04428032 9.15014586 288.04923743 11.14770508 290.05981445 C11.75281418 290.64649399 12.35792328 291.23317352 12.98136902 291.83763123 C14.61701965 293.5070343 14.61701965 293.5070343 16.9375 296.5625 C16.85965457 300.45360285 15.67261208 302.32884167 12.9453125 305.015625 C12.32817383 305.63034668 11.71103516 306.24506836 11.07519531 306.87841797 C10.07891113 307.83578857 10.07891113 307.83578857 9.0625 308.8125 C8.0430127 309.81047607 8.0430127 309.81047607 7.00292969 310.82861328 C1.56411225 316.09450553 -4.10838264 320.88748198 -10.0625 325.5625 C-10.88363281 326.26246094 -11.70476563 326.96242188 -12.55078125 327.68359375 C-42.57254511 353.2408161 -78.00099403 368.11069725 -117.0625 372.5625 C-117.83045898 372.6567627 -118.59841797 372.75102539 -119.38964844 372.84814453 C-142.94341976 375.40277359 -168.84407053 375.2559457 -192.0625 370.5625 C-193.55958496 370.26448486 -193.55958496 370.26448486 -195.08691406 369.96044922 C-216.0004044 365.66117149 -235.24403278 358.57945694 -254.0625 348.5625 C-255.55136719 347.79292969 -255.55136719 347.79292969 -257.0703125 347.0078125 C-303.89886537 322.3260966 -338.17163053 277.56652045 -354.4128418 227.69238281 C-371.87058223 171.12069626 -366.10816519 108.59256712 -338.51708984 56.22314453 C-328.96237971 38.74626789 -317.16737657 23.34947423 -303.42773438 8.99072266 C-302.20815415 7.71487424 -301.0015991 6.42660438 -299.796875 5.13671875 C-239.19699872 -58.04426337 -127.42112063 -71.58928844 0 0 Z " fill="#0071BC" transform="translate(2597.0625,421.4375)"/>
<path d="M0 0 C38.61 0 77.22 0 117 0 C117 184.14 117 368.28 117 558 C78.39 558 39.78 558 0 558 C0 373.86 0 189.72 0 0 Z " fill="#FFFFFF" transform="translate(3393,228)"/>
<path d="M0 0 C38.61 0 77.22 0 117 0 C117 184.14 117 368.28 117 558 C78.39 558 39.78 558 0 558 C0 373.86 0 189.72 0 0 Z " fill="#0071BC" transform="translate(2694,228)"/>
<path d="M0 0 C0 40.59 0 81.18 0 123 C-11.385 123.495 -11.385 123.495 -23 124 C-40.27717719 126.17322983 -55.44083925 130.02296835 -71 138 C-72.49273438 138.75023437 -72.49273438 138.75023437 -74.015625 139.515625 C-82.55148936 144.1187351 -89.20443161 150.18862271 -96 157 C-96.82628906 157.8146875 -97.65257813 158.629375 -98.50390625 159.46875 C-125.77575195 187.92632812 -130.0639549 231.3980133 -130.20532227 268.82763672 C-130.21492784 270.46515128 -130.22493937 272.10266351 -130.23532104 273.74017334 C-130.26208641 278.14001527 -130.2832474 282.53986762 -130.30332303 286.93974447 C-130.32536005 291.55482926 -130.35266111 296.169883 -130.37937927 300.78494263 C-130.42906884 309.50387046 -130.47409457 318.22281574 -130.51740164 326.94177735 C-130.57626737 338.73809229 -130.64242498 350.53436627 -130.70815182 362.33064461 C-130.81135467 380.8870687 -130.9048905 399.44352857 -131 418 C-169.61 418 -208.22 418 -248 418 C-248 282.7 -248 147.4 -248 8 C-209.39 8 -170.78 8 -131 8 C-130.67 33.41 -130.34 58.82 -130 85 C-126.04 77.41 -122.08 69.82 -118 62 C-110.74660247 50.96879125 -103.17530838 41.39088097 -94 32 C-93.40058594 31.33871094 -92.80117187 30.67742187 -92.18359375 29.99609375 C-68.11082529 3.9926772 -33.3858894 0 0 0 Z " fill="#0071BC" transform="translate(2198,364)"/>
<path d="M0 0 C38.94 0 77.88 0 118 0 C118 135.3 118 270.6 118 410 C79.06 410 40.12 410 0 410 C0 274.7 0 139.4 0 0 Z " fill="#FFFFFF" transform="translate(3623,376)"/>
<path d="M0 0 C38.61 0 77.22 0 117 0 C117 135.63 117 271.26 117 411 C78.39 411 39.78 411 0 411 C0 275.37 0 139.74 0 0 Z " fill="#0071BC" transform="translate(1702,372)"/>
<path d="M0 0 C40.92 0 81.84 0 124 0 C124 34.32 124 68.64 124 104 C83.08 104 42.16 104 0 104 C0 69.68 0 35.36 0 0 Z " fill="#FFFFFF" transform="translate(3620,228)"/>
<path d="M0 0 C40.59 0 81.18 0 123 0 C123 34.32 123 68.64 123 104 C82.41 104 41.82 104 0 104 C0 69.68 0 35.36 0 0 Z " fill="#0071BC" transform="translate(1699,224)"/>
</svg>
