<svg xmlns="http://www.w3.org/2000/svg"  viewBox="0 0 48 48" width="48px" height="48px" baseProfile="basic"><path fill="#7b83eb" d="M14,38h19c3.314,0,6-2.686,6-6V17H3v10C3,33.075,7.925,38,14,38z"/><circle cx="19.5" cy="26.5" r="2"/><path fill="#a7adeb" d="M35,33h-5c-3.314,0-6-2.686-6-6v-3c0-1.105,0.895-2,2-2h13c1.105,0,2,0.895,2,2v3	C41,30.314,38.314,33,35,33z"/><path fill="#7b83eb" d="M33,30h-2c-0.552,0-1-0.448-1-1v0c0-0.552,0.448-1,1-1h2c0.552,0,1,0.448,1,1v0	C34,29.552,33.552,30,33,30z"/><path fill="#7b83eb" d="M38,30h-1c-0.552,0-1-0.448-1-1v0c0-0.552,0.448-1,1-1h1c0.552,0,1,0.448,1,1v0	C39,29.552,38.552,30,38,30z"/><linearGradient id="OhFLpPhHhdn-Hw1HqNi0ea" x1="-3.917" x2="9.226" y1="21.42" y2="42.453" gradientUnits="userSpaceOnUse"><stop offset="0" stop-color="#fed100"/><stop offset="1" stop-color="#e36001"/></linearGradient><path fill="url(#OhFLpPhHhdn-Hw1HqNi0ea)" d="M8,32.98V40l-2.5,1.9L3,40v-8.81C4.11,32.32,5.64,33,7.5,33C7.67,33,7.83,32.99,8,32.98z"/><linearGradient id="OhFLpPhHhdn-Hw1HqNi0eb" x1="-6.038" x2="16.488" y1="37.685" y2="18.784" gradientUnits="userSpaceOnUse"><stop offset="0" stop-color="#c3cdd9"/><stop offset="1" stop-color="#9fa7b0"/></linearGradient><path fill="url(#OhFLpPhHhdn-Hw1HqNi0eb)" d="M17,18v1l-3.6,9c-1,3-3.159,5-5.9,5c-4,0-6.5-3.147-6.5-7C1,18,17,18,17,18z"/><radialGradient id="OhFLpPhHhdn-Hw1HqNi0ec" cx="17.605" cy="10.804" r="24.57" gradientUnits="userSpaceOnUse"><stop offset="0" stop-color="#fafafb"/><stop offset="1" stop-color="#c8cdd1"/></radialGradient><path fill="url(#OhFLpPhHhdn-Hw1HqNi0ec)" d="M15,19l-3,8c-1,3-3.259,5-6,5c-4,0-6-3.147-6-7C0,17,8,8,20.5,8c8.739,0,16.2,3.737,19.146,9	L15,19z"/><linearGradient id="OhFLpPhHhdn-Hw1HqNi0ed" x1="16.75" x2="34.71" y1="12.52" y2="12.52" gradientUnits="userSpaceOnUse"><stop offset="0" stop-color="#fed100"/><stop offset="1" stop-color="#e36001"/></linearGradient><path fill="url(#OhFLpPhHhdn-Hw1HqNi0ed)" d="M34.71,17h-3.96c-2.24-4.65-7.29-7.8-14-8.71c0.77-0.13,1.57-0.21,2.39-0.25	C26.97,8.48,32.27,12.07,34.71,17z"/><path fill="#5059c9" d="M48,19H15c0,0,4.587-4,16.5-4S48,19,48,19z"/><ellipse cx="5.083" cy="25" fill="#5059c9" rx="3.917" ry="4.5"/><linearGradient id="OhFLpPhHhdn-Hw1HqNi0ee" x1="-2.063" x2="6.651" y1="14.497" y2="28.442" gradientUnits="userSpaceOnUse"><stop offset="0" stop-color="#fed100"/><stop offset="1" stop-color="#e36001"/></linearGradient><ellipse cx="4.5" cy="25" fill="url(#OhFLpPhHhdn-Hw1HqNi0ee)" rx="2.5" ry="3"/></svg>